<svg width="24" height="25" viewBox="0 0 24 25" fill="none" xmlns="http://www.w3.org/2000/svg">
<path d="M22.147 24.243C19.437 24.243 16.7954 23.5983 14.2223 22.309C11.6483 21.0206 9.36889 19.3171 7.38402 17.1984C5.3983 15.0806 3.80166 12.6486 2.5941 9.90225C1.3857 7.15685 0.781494 4.33837 0.781494 1.44682C0.781494 1.04335 0.907545 0.707122 1.15965 0.43814C1.41175 0.169159 1.72687 0.034668 2.10502 0.034668H7.21007C7.50418 0.034668 7.76679 0.135536 7.99788 0.337272C8.22897 0.539008 8.36553 0.796782 8.40755 1.11059L9.22687 5.81777C9.26889 6.13158 9.26385 6.41715 9.21175 6.67448C9.1588 6.9327 9.0378 7.16268 8.84872 7.36441L5.792 10.6594C6.67435 12.2733 7.78275 13.7863 9.11721 15.1985C10.4508 16.6107 11.9159 17.8323 13.5126 18.8634L16.4748 15.7028C16.6638 15.5011 16.9109 15.3496 17.2159 15.2483C17.5202 15.1478 17.8193 15.12 18.1134 15.1649L22.4622 16.1063C22.7563 16.1736 22.9979 16.3246 23.187 16.5595C23.376 16.7954 23.4706 17.0702 23.4706 17.384V22.8308C23.4706 23.2343 23.3445 23.5705 23.0924 23.8395C22.8403 24.1085 22.5252 24.243 22.147 24.243ZM4.59452 8.10411L6.67435 5.88502L6.13864 2.72448H3.33402C3.43906 3.6435 3.58612 4.55132 3.77519 5.44792C3.96427 6.34453 4.23738 7.22992 4.59452 8.10411ZM15.876 20.141C16.6954 20.5221 17.5307 20.8247 18.3819 21.0488C19.2323 21.273 20.0882 21.4187 20.9496 21.4859V18.5271L17.9874 17.8883L15.876 20.141Z" fill="#1C1B1F"/>
</svg>
