<svg xmlns="http://www.w3.org/2000/svg" height="24" width="24"><path d="M12 22q-2.65 0-4.325-.837Q6 20.325 6 19q0-.875.725-1.525.725-.65 2-1.025l.575 1.9q-.425.125-.775.313-.35.187-.475.337.325.4 1.5.7 1.175.3 2.45.3 1.275 0 2.463-.3 1.187-.3 1.512-.7-.125-.15-.475-.337-.35-.188-.775-.313l.575-1.9q1.275.375 1.988 1.025Q18 18.125 18 19q0 1.325-1.675 2.163Q14.65 22 12 22Zm0-6.675q.45-.825.95-1.513.5-.687.975-1.312.925-1.2 1.475-2.163.55-.962.55-2.387 0-1.65-1.15-2.8T12 4q-1.65 0-2.8 1.15t-1.15 2.8q0 1.425.55 2.387.55.963 1.475 2.163.475.625.975 1.312.5.688.95 1.513ZM12 19q-.275 0-.5-.163-.225-.162-.325-.437-.575-1.775-1.45-2.975-.875-1.2-1.7-2.3-.8-1.1-1.387-2.275-.588-1.175-.588-2.9 0-2.5 1.725-4.225Q9.5 2 12 2q2.5 0 4.225 1.725Q17.95 5.45 17.95 7.95q0 1.725-.575 2.9-.575 1.175-1.4 2.275-.8 1.1-1.687 2.3-.888 1.2-1.463 2.975-.1.275-.325.437-.225.163-.5.163Zm0-8.925q.875 0 1.5-.625t.625-1.5q0-.875-.625-1.5T12 5.825q-.875 0-1.5.625t-.625 1.5q0 .875.625 1.5t1.5.625Zm0-2.125Z"/></svg>